<svg width="75" height="21" viewBox="0 0 75 21" fill="none" xmlns="http://www.w3.org/2000/svg">
<path d="M19.7386 19.4615V9.62427C19.7386 4.86122 15.8773 1 11.1143 1V1C6.35124 1 2.49002 4.86121 2.49002 9.62427V19.4615" stroke="#1D1D1D" stroke-width="2"/>
<path d="M3.75 21H2.5C1.11929 21 0 19.8807 0 18.5V13.5C0 12.1193 1.11929 11 2.5 11H3.75V21Z" fill="#1D1D1D"/>
<path d="M18.4863 11H19.7363C21.117 11 22.2363 12.1193 22.2363 13.5V18.5C22.2363 19.8807 21.117 21 19.7363 21H18.4863V11Z" fill="#1D1D1D"/>
<rect x="6.25" y="7.25" width="1.25" height="10" rx="0.625" fill="#F5740A"/>
<rect x="15" y="7.25" width="1.25" height="10" rx="0.625" fill="#F5740A"/>
<path d="M15.625 7.875L11.25 13.5L6.875 7.875" stroke="#F5740A"/>
<path d="M26.8807 4.72727H27.9318L30.4034 10.7642H30.4886L32.9602 4.72727H34.0114V12H33.1875V6.47443H33.1165L30.8438 12H30.0483L27.7756 6.47443H27.7045V12H26.8807V4.72727ZM37.8794 12.1136C37.387 12.1136 36.955 11.9964 36.5833 11.7621C36.214 11.5277 35.9251 11.1998 35.7168 10.7784C35.5108 10.357 35.4078 9.86458 35.4078 9.30114C35.4078 8.73295 35.5108 8.23698 35.7168 7.81321C35.9251 7.38944 36.214 7.06037 36.5833 6.82599C36.955 6.59162 37.387 6.47443 37.8794 6.47443C38.3719 6.47443 38.8027 6.59162 39.1721 6.82599C39.5437 7.06037 39.8326 7.38944 40.0385 7.81321C40.2469 8.23698 40.351 8.73295 40.351 9.30114C40.351 9.86458 40.2469 10.357 40.0385 10.7784C39.8326 11.1998 39.5437 11.5277 39.1721 11.7621C38.8027 11.9964 38.3719 12.1136 37.8794 12.1136ZM37.8794 11.3608C38.2535 11.3608 38.5613 11.2649 38.8027 11.0732C39.0442 10.8814 39.223 10.6293 39.339 10.3168C39.455 10.0043 39.513 9.66572 39.513 9.30114C39.513 8.93655 39.455 8.59683 39.339 8.28196C39.223 7.96709 39.0442 7.71259 38.8027 7.51847C38.5613 7.32434 38.2535 7.22727 37.8794 7.22727C37.5054 7.22727 37.1976 7.32434 36.9561 7.51847C36.7147 7.71259 36.5359 7.96709 36.4199 8.28196C36.3039 8.59683 36.2459 8.93655 36.2459 9.30114C36.2459 9.66572 36.3039 10.0043 36.4199 10.3168C36.5359 10.6293 36.7147 10.8814 36.9561 11.0732C37.1976 11.2649 37.5054 11.3608 37.8794 11.3608ZM45.0678 9.76989V6.54545H45.9059V12H45.0678V11.0767H45.011C44.8832 11.3537 44.6843 11.5893 44.4144 11.7834C44.1445 11.9751 43.8036 12.071 43.3917 12.071C43.0508 12.071 42.7478 11.9964 42.4826 11.8473C42.2174 11.6958 42.0091 11.4685 41.8576 11.1655C41.7061 10.8601 41.6303 10.4754 41.6303 10.0114V6.54545H42.4684V9.95455C42.4684 10.3523 42.5797 10.6695 42.8022 10.9062C43.0271 11.143 43.3136 11.2614 43.6616 11.2614C43.8699 11.2614 44.0818 11.2081 44.2972 11.1016C44.515 10.995 44.6973 10.8317 44.8441 10.6115C44.9933 10.3913 45.0678 10.1108 45.0678 9.76989ZM48.2789 4.72727V12H47.4409V4.72727H48.2789ZM49.8139 12V6.54545H50.652V12H49.8139ZM50.2401 5.63636C50.0767 5.63636 49.9358 5.58073 49.8175 5.46946C49.7015 5.35819 49.6435 5.22443 49.6435 5.06818C49.6435 4.91193 49.7015 4.77817 49.8175 4.6669C49.9358 4.55563 50.0767 4.5 50.2401 4.5C50.4034 4.5 50.5431 4.55563 50.6591 4.6669C50.7775 4.77817 50.8366 4.91193 50.8366 5.06818C50.8366 5.22443 50.7775 5.35819 50.6591 5.46946C50.5431 5.58073 50.4034 5.63636 50.2401 5.63636ZM52.9682 10.0114L52.954 8.97443H53.1245L55.5108 6.54545H56.5478L54.0051 9.11648H53.9341L52.9682 10.0114ZM52.187 12V4.72727H53.025V12H52.187ZM55.6529 12L53.5222 9.30114L54.1188 8.71875L56.7182 12H55.6529ZM60.5526 12V4.72727H63.0099C63.5781 4.72727 64.0445 4.82434 64.4091 5.01847C64.7737 5.21023 65.0436 5.47419 65.2188 5.81037C65.3939 6.14654 65.4815 6.52888 65.4815 6.95739C65.4815 7.38589 65.3939 7.76586 65.2188 8.0973C65.0436 8.42874 64.7749 8.68916 64.4126 8.87855C64.0504 9.06558 63.5876 9.15909 63.0241 9.15909H61.0355V8.36364H62.9957C63.384 8.36364 63.6965 8.30682 63.9332 8.19318C64.1723 8.07955 64.3452 7.91856 64.4517 7.71023C64.5606 7.49953 64.6151 7.24858 64.6151 6.95739C64.6151 6.66619 64.5606 6.41169 64.4517 6.19389C64.3428 5.97609 64.1688 5.808 63.9297 5.68963C63.6906 5.56889 63.3745 5.50852 62.9815 5.50852H61.4332V12H60.5526ZM63.9759 8.73295L65.7656 12H64.7429L62.9815 8.73295H63.9759ZM68.4405 12.1278C68.0949 12.1278 67.7812 12.0627 67.4995 11.9325C67.2177 11.8 66.994 11.6094 66.8283 11.3608C66.6626 11.1098 66.5797 10.8068 66.5797 10.4517C66.5797 10.1392 66.6413 9.88589 66.7644 9.69176C66.8875 9.49527 67.052 9.34138 67.258 9.23011C67.464 9.11884 67.6912 9.03598 67.9398 8.98153C68.1908 8.92472 68.4429 8.87973 68.6962 8.84659C69.0276 8.80398 69.2963 8.77202 69.5023 8.75071C69.7106 8.72704 69.8622 8.68797 69.9569 8.63352C70.0539 8.57907 70.1025 8.48437 70.1025 8.34943V8.32102C70.1025 7.97064 70.0066 7.69839 69.8148 7.50426C69.6254 7.31013 69.3378 7.21307 68.9519 7.21307C68.5518 7.21307 68.2381 7.30066 68.0108 7.47585C67.7836 7.65104 67.6238 7.83807 67.5314 8.03693L66.736 7.75284C66.878 7.4214 67.0674 7.16335 67.3042 6.97869C67.5433 6.79167 67.8037 6.66146 68.0854 6.58807C68.3695 6.51231 68.6489 6.47443 68.9235 6.47443C69.0987 6.47443 69.2999 6.49574 69.5272 6.53835C69.7568 6.5786 69.9782 6.66264 70.1912 6.79048C70.4067 6.91832 70.5854 7.11127 70.7275 7.36932C70.8695 7.62737 70.9405 7.97301 70.9405 8.40625V12H70.1025V11.2614H70.0598C70.003 11.3797 69.9083 11.5064 69.7757 11.6413C69.6432 11.7763 69.4668 11.8911 69.2466 11.9858C69.0265 12.0805 68.7578 12.1278 68.4405 12.1278ZM68.5684 11.375C68.8998 11.375 69.1792 11.3099 69.4064 11.1797C69.6361 11.0495 69.8089 10.8814 69.9249 10.6754C70.0433 10.4695 70.1025 10.2528 70.1025 10.0256V9.25852C70.0669 9.30114 69.9888 9.3402 69.8681 9.37571C69.7497 9.40885 69.6124 9.43845 69.4561 9.46449C69.3023 9.48816 69.1519 9.50947 69.0051 9.52841C68.8607 9.54498 68.7435 9.55919 68.6536 9.57102C68.4358 9.59943 68.2322 9.6456 68.0428 9.70952C67.8558 9.77107 67.7042 9.86458 67.5882 9.99006C67.4746 10.1132 67.4178 10.2812 67.4178 10.4943C67.4178 10.7855 67.5255 11.0057 67.7409 11.1548C67.9587 11.3016 68.2346 11.375 68.5684 11.375ZM72.4702 12V6.54545H73.3082V12H72.4702ZM72.8963 5.63636C72.733 5.63636 72.5921 5.58073 72.4737 5.46946C72.3577 5.35819 72.2997 5.22443 72.2997 5.06818C72.2997 4.91193 72.3577 4.77817 72.4737 4.6669C72.5921 4.55563 72.733 4.5 72.8963 4.5C73.0597 4.5 73.1993 4.55563 73.3153 4.6669C73.4337 4.77817 73.4929 4.91193 73.4929 5.06818C73.4929 5.22443 73.4337 5.35819 73.3153 5.46946C73.1993 5.58073 73.0597 5.63636 72.8963 5.63636Z" fill="black"/>
<path d="M29.0676 16C29.0455 15.7773 28.9472 15.6003 28.7727 15.4687C28.5982 15.3372 28.3788 15.2715 28.1145 15.2715C27.9283 15.2715 27.7642 15.3034 27.6223 15.3672C27.4817 15.431 27.371 15.5195 27.2903 15.6328C27.2109 15.7448 27.1711 15.8724 27.1711 16.0156C27.1711 16.1211 27.1939 16.2135 27.2395 16.293C27.2851 16.3724 27.3463 16.4408 27.4231 16.498C27.5012 16.554 27.5872 16.6022 27.6809 16.6426C27.776 16.6829 27.8717 16.7168 27.968 16.7441L28.3899 16.8652C28.5175 16.9004 28.6451 16.9453 28.7727 17C28.9003 17.0547 29.0168 17.1237 29.1223 17.207C29.2291 17.2891 29.3144 17.39 29.3782 17.5098C29.4433 17.6283 29.4758 17.7708 29.4758 17.9375C29.4758 18.151 29.4205 18.3431 29.3098 18.5137C29.1991 18.6842 29.0403 18.8197 28.8333 18.9199C28.6262 19.0189 28.3782 19.0684 28.0891 19.0684C27.817 19.0684 27.5806 19.0234 27.3801 18.9336C27.1796 18.8424 27.0221 18.7168 26.9075 18.5566C26.7929 18.3965 26.7284 18.2109 26.7141 18H27.0891C27.1021 18.1576 27.1542 18.291 27.2454 18.4004C27.3365 18.5098 27.455 18.5931 27.6008 18.6504C27.7467 18.7064 27.9094 18.7344 28.0891 18.7344C28.2883 18.7344 28.4654 18.7012 28.6204 18.6348C28.7766 18.5671 28.899 18.4733 28.9875 18.3535C29.0774 18.2324 29.1223 18.0918 29.1223 17.9316C29.1223 17.7962 29.0872 17.6829 29.0168 17.5918C28.9465 17.4993 28.8482 17.4219 28.7219 17.3594C28.5969 17.2969 28.4517 17.2415 28.2864 17.1934L27.8079 17.0527C27.4941 16.959 27.2506 16.8294 27.0774 16.6641C26.9042 16.4987 26.8176 16.2878 26.8176 16.0312C26.8176 15.8164 26.8749 15.6276 26.9895 15.4648C27.1054 15.3008 27.2616 15.1732 27.4583 15.082C27.6562 14.9896 27.8782 14.9434 28.1243 14.9434C28.373 14.9434 28.593 14.9889 28.7844 15.0801C28.9758 15.1712 29.1275 15.2969 29.2395 15.457C29.3528 15.6159 29.4133 15.7969 29.4211 16H29.0676ZM31.4485 19.0625C31.1894 19.0625 30.9602 18.9967 30.761 18.8652C30.5631 18.7337 30.4081 18.5521 30.2961 18.3203C30.1842 18.0872 30.1282 17.8184 30.1282 17.5137C30.1282 17.2064 30.1842 16.9362 30.2961 16.7031C30.4081 16.4687 30.5631 16.2865 30.761 16.1562C30.9602 16.0247 31.1894 15.959 31.4485 15.959C31.7076 15.959 31.9361 16.0247 32.134 16.1562C32.3319 16.2878 32.4869 16.4701 32.5989 16.7031C32.7122 16.9362 32.7688 17.2064 32.7688 17.5137C32.7688 17.8184 32.7128 18.0872 32.6008 18.3203C32.4889 18.5521 32.3333 18.7337 32.134 18.8652C31.9361 18.9967 31.7076 19.0625 31.4485 19.0625ZM31.4485 18.7441C31.6568 18.7441 31.8333 18.6882 31.9778 18.5762C32.1223 18.4642 32.2317 18.3151 32.3059 18.1289C32.3814 17.9427 32.4192 17.7376 32.4192 17.5137C32.4192 17.2897 32.3814 17.084 32.3059 16.8965C32.2317 16.709 32.1223 16.5586 31.9778 16.4453C31.8333 16.332 31.6568 16.2754 31.4485 16.2754C31.2415 16.2754 31.065 16.332 30.9192 16.4453C30.7747 16.5586 30.6646 16.709 30.5891 16.8965C30.5149 17.084 30.4778 17.2897 30.4778 17.5137C30.4778 17.7376 30.5149 17.9427 30.5891 18.1289C30.6646 18.3151 30.7747 18.4642 30.9192 18.5762C31.0637 18.6882 31.2402 18.7441 31.4485 18.7441ZM34.7664 16V16.3027H33.2917V16H34.7664ZM33.7527 19V15.5605C33.7527 15.3991 33.7898 15.263 33.864 15.1523C33.9395 15.0417 34.0378 14.9577 34.1589 14.9004C34.28 14.8431 34.4083 14.8145 34.5437 14.8145C34.6348 14.8145 34.7104 14.8223 34.7703 14.8379C34.8315 14.8522 34.8796 14.8665 34.9148 14.8809L34.8132 15.1855C34.7872 15.1777 34.7553 15.1686 34.7175 15.1582C34.6798 15.1478 34.6322 15.1426 34.575 15.1426C34.4239 15.1426 34.3074 15.1849 34.2253 15.2695C34.1433 15.3542 34.1023 15.4753 34.1023 15.6328L34.1003 19H33.7527ZM36.6418 16V16.3027H35.2102V16H36.6418ZM35.6575 15.2812H36.0071V18.2168C36.0071 18.3418 36.0286 18.4401 36.0715 18.5117C36.1145 18.582 36.1705 18.6322 36.2395 18.6621C36.3085 18.6908 36.3821 18.7051 36.4602 18.7051C36.5058 18.7051 36.5448 18.7025 36.5774 18.6973C36.6099 18.6908 36.6386 18.6842 36.6633 18.6777L36.7375 18.9922C36.7037 19.0052 36.662 19.0169 36.6125 19.0273C36.5631 19.0391 36.5019 19.0449 36.429 19.0449C36.3014 19.0449 36.1783 19.0169 36.0598 18.9609C35.9426 18.9049 35.8463 18.8216 35.7708 18.7109C35.6952 18.6003 35.6575 18.4629 35.6575 18.2988V15.2812ZM38.0974 19L37.1912 16H37.5583L38.2693 18.4746H38.2947L39.0037 16H39.3728L40.0759 18.4687H40.1033L40.8142 16H41.1814L40.2751 19H39.9158L39.2048 16.541H39.1677L38.4568 19H38.0974ZM42.6951 19.0684C42.5141 19.0684 42.3487 19.0332 42.199 18.9629C42.0492 18.8913 41.9301 18.7884 41.8416 18.6543C41.753 18.5189 41.7087 18.3548 41.7087 18.1621C41.7087 18.0137 41.7367 17.8887 41.7927 17.7871C41.8487 17.6855 41.9281 17.6022 42.031 17.5371C42.1339 17.472 42.2556 17.4206 42.3962 17.3828C42.5369 17.3451 42.6918 17.3158 42.8611 17.2949C43.0291 17.2741 43.171 17.2559 43.2869 17.2402C43.4041 17.2246 43.4932 17.1999 43.5544 17.166C43.6156 17.1322 43.6462 17.0775 43.6462 17.002V16.9316C43.6462 16.7272 43.585 16.5664 43.4626 16.4492C43.3416 16.3307 43.1671 16.2715 42.9392 16.2715C42.7231 16.2715 42.5466 16.319 42.4099 16.4141C42.2745 16.5091 42.1794 16.6211 42.1248 16.75L41.7947 16.6309C41.8624 16.4668 41.9561 16.3359 42.0759 16.2383C42.1957 16.1393 42.3298 16.0684 42.4783 16.0254C42.6267 15.9811 42.7771 15.959 42.9294 15.959C43.044 15.959 43.1632 15.974 43.2869 16.0039C43.4119 16.0339 43.5278 16.0859 43.6345 16.1602C43.7413 16.2331 43.8279 16.3353 43.8943 16.4668C43.9607 16.597 43.9939 16.7624 43.9939 16.9629V19H43.6462V18.5254H43.6248C43.5831 18.6139 43.5212 18.6999 43.4392 18.7832C43.3572 18.8665 43.2543 18.9349 43.1306 18.9883C43.0069 19.0417 42.8617 19.0684 42.6951 19.0684ZM42.7419 18.75C42.9268 18.75 43.087 18.709 43.2224 18.627C43.3578 18.5449 43.462 18.4362 43.5349 18.3008C43.6091 18.1641 43.6462 18.0137 43.6462 17.8496V17.416C43.6202 17.4408 43.5766 17.4629 43.5154 17.4824C43.4555 17.502 43.3858 17.5195 43.3064 17.5352C43.2283 17.5495 43.1501 17.5618 43.072 17.5723C42.9939 17.5827 42.9236 17.5918 42.8611 17.5996C42.6918 17.6204 42.5473 17.653 42.4275 17.6973C42.3077 17.7415 42.2159 17.8027 42.1521 17.8809C42.0883 17.9577 42.0564 18.0566 42.0564 18.1777C42.0564 18.36 42.1215 18.5013 42.2517 18.6016C42.3819 18.7005 42.5453 18.75 42.7419 18.75ZM44.9187 19V16H45.2566V16.4609H45.282C45.3419 16.3099 45.446 16.1882 45.5945 16.0957C45.7442 16.002 45.9135 15.9551 46.1023 15.9551C46.1309 15.9551 46.1628 15.9557 46.198 15.957C46.2332 15.9583 46.2625 15.9596 46.2859 15.9609V16.3145C46.2703 16.3118 46.2429 16.3079 46.2039 16.3027C46.1648 16.2975 46.1225 16.2949 46.0769 16.2949C45.9207 16.2949 45.7813 16.3281 45.6589 16.3945C45.5378 16.4596 45.4421 16.5501 45.3718 16.666C45.3015 16.7819 45.2664 16.9141 45.2664 17.0625V19H44.9187ZM48.0007 19.0625C47.7208 19.0625 47.4786 18.9974 47.2742 18.8672C47.0697 18.7357 46.9115 18.554 46.7996 18.3223C46.6889 18.0892 46.6335 17.821 46.6335 17.5176C46.6335 17.2155 46.6889 16.9473 46.7996 16.7129C46.9115 16.4772 47.0658 16.293 47.2625 16.1602C47.4604 16.026 47.6889 15.959 47.948 15.959C48.1108 15.959 48.2677 15.9889 48.4187 16.0488C48.5697 16.1074 48.7052 16.1979 48.825 16.3203C48.946 16.4414 49.0417 16.5944 49.1121 16.7793C49.1824 16.9629 49.2175 17.1803 49.2175 17.4316V17.6035H46.8738V17.2969H48.8621C48.8621 17.1042 48.823 16.931 48.7449 16.7773C48.6681 16.6224 48.5606 16.5 48.4226 16.4102C48.2859 16.3203 48.1277 16.2754 47.948 16.2754C47.7579 16.2754 47.5906 16.3262 47.446 16.4277C47.3015 16.5293 47.1882 16.6634 47.1062 16.8301C47.0255 16.9967 46.9845 17.179 46.9832 17.377V17.5605C46.9832 17.7988 47.0242 18.0072 47.1062 18.1855C47.1895 18.3626 47.3074 18.5 47.4597 18.5977C47.6121 18.6953 47.7924 18.7441 48.0007 18.7441C48.1427 18.7441 48.267 18.722 48.3738 18.6777C48.4819 18.6335 48.5723 18.5742 48.6453 18.5C48.7195 18.4245 48.7755 18.3418 48.8132 18.252L49.1433 18.3594C49.0977 18.4857 49.0229 18.6022 48.9187 18.709C48.8158 18.8158 48.6869 18.9017 48.532 18.9668C48.3783 19.0306 48.2013 19.0625 48.0007 19.0625ZM51.6028 19V15H53.9231V15.3281H51.968V16.834H53.8V17.1621H51.968V18.6719H53.9622V19H51.6028ZM55.1438 17.125V19H54.7961V16H55.134V16.4707H55.1653C55.2356 16.3171 55.345 16.194 55.4934 16.1016C55.6431 16.0078 55.828 15.9609 56.0481 15.9609C56.2499 15.9609 56.427 16.0033 56.5793 16.0879C56.733 16.1712 56.8521 16.2943 56.9368 16.457C57.0227 16.6198 57.0657 16.8197 57.0657 17.0566V19H56.718V17.0781C56.718 16.832 56.649 16.6374 56.511 16.4941C56.3743 16.3509 56.1907 16.2793 55.9602 16.2793C55.8027 16.2793 55.6627 16.3132 55.5403 16.3809C55.4179 16.4486 55.3209 16.5462 55.2493 16.6738C55.179 16.8001 55.1438 16.9505 55.1438 17.125ZM59.1257 20.1875C58.9213 20.1875 58.7423 20.1608 58.5886 20.1074C58.435 20.0553 58.3054 19.9837 58.2 19.8926C58.0945 19.8014 58.0125 19.6992 57.9539 19.5859L58.239 19.3984C58.282 19.474 58.3393 19.5482 58.4109 19.6211C58.4838 19.694 58.5782 19.7546 58.6941 19.8027C58.8113 19.8509 58.9552 19.875 59.1257 19.875C59.3914 19.875 59.6056 19.8086 59.7683 19.6758C59.9324 19.543 60.0144 19.3366 60.0144 19.0566V18.3809H59.9832C59.9428 18.472 59.8848 18.5632 59.8093 18.6543C59.7338 18.7441 59.6348 18.819 59.5125 18.8789C59.3914 18.9388 59.241 18.9687 59.0613 18.9687C58.8217 18.9687 58.6088 18.9095 58.4226 18.791C58.2377 18.6725 58.0919 18.5033 57.9851 18.2832C57.8796 18.0618 57.8269 17.7982 57.8269 17.4922C57.8269 17.1888 57.8783 16.9219 57.9812 16.6914C58.0854 16.4609 58.2306 16.2812 58.4167 16.1523C58.6029 16.0234 58.8197 15.959 59.0671 15.959C59.2507 15.959 59.4031 15.9915 59.5242 16.0566C59.6453 16.1204 59.7423 16.1999 59.8152 16.2949C59.8894 16.39 59.9473 16.4824 59.989 16.5723H60.0242V16H60.364V19.0781C60.364 19.332 60.31 19.541 60.2019 19.7051C60.0938 19.8691 59.9467 19.9902 59.7605 20.0684C59.5743 20.1478 59.3627 20.1875 59.1257 20.1875ZM59.1023 18.6504C59.295 18.6504 59.4597 18.6042 59.5964 18.5117C59.7332 18.418 59.838 18.2839 59.9109 18.1094C59.9838 17.9349 60.0203 17.7272 60.0203 17.4863C60.0203 17.252 59.9845 17.0443 59.9128 16.8633C59.8412 16.681 59.7371 16.5378 59.6003 16.4336C59.4649 16.3281 59.2989 16.2754 59.1023 16.2754C58.9018 16.2754 58.7325 16.3294 58.5945 16.4375C58.4565 16.5456 58.3523 16.6914 58.282 16.875C58.2117 17.0573 58.1765 17.2611 58.1765 17.4863C58.1765 17.7155 58.2123 17.918 58.2839 18.0937C58.3556 18.2682 58.4604 18.4049 58.5984 18.5039C58.7364 18.6016 58.9044 18.6504 59.1023 18.6504ZM61.2883 19V16H61.6379V19H61.2883ZM61.4661 15.4844C61.3944 15.4844 61.3333 15.4603 61.2825 15.4121C61.2317 15.3626 61.2063 15.3034 61.2063 15.2344C61.2063 15.1654 61.2317 15.1068 61.2825 15.0586C61.3333 15.0091 61.3944 14.9844 61.4661 14.9844C61.5377 14.9844 61.5989 15.0091 61.6497 15.0586C61.7004 15.1068 61.7258 15.1654 61.7258 15.2344C61.7258 15.3034 61.7004 15.3626 61.6497 15.4121C61.5989 15.4603 61.5377 15.4844 61.4661 15.4844ZM62.905 17.125V19H62.5574V16H62.8953V16.4707H62.9265C62.9968 16.3171 63.1062 16.194 63.2546 16.1016C63.4044 16.0078 63.5893 15.9609 63.8093 15.9609C64.0111 15.9609 64.1882 16.0033 64.3406 16.0879C64.4942 16.1712 64.6134 16.2943 64.698 16.457C64.7839 16.6198 64.8269 16.8197 64.8269 17.0566V19H64.4792V17.0781C64.4792 16.832 64.4102 16.6374 64.2722 16.4941C64.1355 16.3509 63.9519 16.2793 63.7214 16.2793C63.5639 16.2793 63.4239 16.3132 63.3015 16.3809C63.1791 16.4486 63.0821 16.5462 63.0105 16.6738C62.9402 16.8001 62.905 16.9505 62.905 17.125ZM66.9553 19.0625C66.6754 19.0625 66.4332 18.9974 66.2288 18.8672C66.0243 18.7357 65.8661 18.554 65.7542 18.3223C65.6435 18.0892 65.5881 17.821 65.5881 17.5176C65.5881 17.2155 65.6435 16.9473 65.7542 16.7129C65.8661 16.4772 66.0204 16.293 66.217 16.1602C66.415 16.026 66.6435 15.959 66.9026 15.959C67.0653 15.959 67.2222 15.9889 67.3733 16.0488C67.5243 16.1074 67.6597 16.1979 67.7795 16.3203C67.9006 16.4414 67.9963 16.5944 68.0667 16.7793C68.137 16.9629 68.1721 17.1803 68.1721 17.4316V17.6035H65.8284V17.2969H67.8167C67.8167 17.1042 67.7776 16.931 67.6995 16.7773C67.6226 16.6224 67.5152 16.5 67.3772 16.4102C67.2405 16.3203 67.0823 16.2754 66.9026 16.2754C66.7125 16.2754 66.5452 16.3262 66.4006 16.4277C66.2561 16.5293 66.1428 16.6634 66.0608 16.8301C65.9801 16.9967 65.939 17.179 65.9377 17.377V17.5605C65.9377 17.7988 65.9788 18.0072 66.0608 18.1855C66.1441 18.3626 66.262 18.5 66.4143 18.5977C66.5667 18.6953 66.747 18.7441 66.9553 18.7441C67.0972 18.7441 67.2216 18.722 67.3284 18.6777C67.4364 18.6335 67.5269 18.5742 67.5999 18.5C67.6741 18.4245 67.7301 18.3418 67.7678 18.252L68.0979 18.3594C68.0523 18.4857 67.9775 18.6022 67.8733 18.709C67.7704 18.8158 67.6415 18.9017 67.4866 18.9668C67.3329 19.0306 67.1558 19.0625 66.9553 19.0625ZM70.1511 19.0625C69.8712 19.0625 69.629 18.9974 69.4246 18.8672C69.2201 18.7357 69.0619 18.554 68.95 18.3223C68.8393 18.0892 68.7839 17.821 68.7839 17.5176C68.7839 17.2155 68.8393 16.9473 68.95 16.7129C69.0619 16.4772 69.2162 16.293 69.4128 16.1602C69.6108 16.026 69.8393 15.959 70.0984 15.959C70.2611 15.959 70.4181 15.9889 70.5691 16.0488C70.7201 16.1074 70.8556 16.1979 70.9753 16.3203C71.0964 16.4414 71.1921 16.5944 71.2625 16.7793C71.3328 16.9629 71.3679 17.1803 71.3679 17.4316V17.6035H69.0242V17.2969H71.0125C71.0125 17.1042 70.9734 16.931 70.8953 16.7773C70.8184 16.6224 70.711 16.5 70.573 16.4102C70.4363 16.3203 70.2781 16.2754 70.0984 16.2754C69.9083 16.2754 69.741 16.3262 69.5964 16.4277C69.4519 16.5293 69.3386 16.6634 69.2566 16.8301C69.1759 16.9967 69.1348 17.179 69.1335 17.377V17.5605C69.1335 17.7988 69.1746 18.0072 69.2566 18.1855C69.3399 18.3626 69.4578 18.5 69.6101 18.5977C69.7625 18.6953 69.9428 18.7441 70.1511 18.7441C70.2931 18.7441 70.4174 18.722 70.5242 18.6777C70.6322 18.6335 70.7227 18.5742 70.7957 18.5C70.8699 18.4245 70.9259 18.3418 70.9636 18.252L71.2937 18.3594C71.2481 18.4857 71.1733 18.6022 71.0691 18.709C70.9662 18.8158 70.8373 18.9017 70.6824 18.9668C70.5287 19.0306 70.3516 19.0625 70.1511 19.0625ZM72.134 19V16H72.4719V16.4609H72.4973C72.5572 16.3099 72.6614 16.1882 72.8098 16.0957C72.9596 16.002 73.1288 15.9551 73.3176 15.9551C73.3463 15.9551 73.3782 15.9557 73.4133 15.957C73.4485 15.9583 73.4778 15.9596 73.5012 15.9609V16.3145C73.4856 16.3118 73.4583 16.3079 73.4192 16.3027C73.3801 16.2975 73.3378 16.2949 73.2922 16.2949C73.136 16.2949 72.9967 16.3281 72.8743 16.3945C72.7532 16.4596 72.6575 16.5501 72.5872 16.666C72.5168 16.7819 72.4817 16.9141 72.4817 17.0625V19H72.134Z" fill="#F5740A"/>
</svg>
