<svg width="18" height="17" viewBox="0 0 18 17" fill="none" xmlns="http://www.w3.org/2000/svg">
<path d="M15.7909 15.7692V7.89942C15.7909 4.08897 12.7019 1 8.89144 1V1C5.081 1 1.99202 4.08898 1.99202 7.89942V15.7692" stroke="#1D1D1D" stroke-width="2"/>
<path d="M3 17H2.5C1.11929 17 0 15.8807 0 14.5V11.5C0 10.1193 1.11929 9 2.5 9H3V17Z" fill="#1D1D1D"/>
<path d="M14.7891 9H15.2891C16.6698 9 17.7891 10.1193 17.7891 11.5V14.5C17.7891 15.8807 16.6698 17 15.2891 17H14.7891V9Z" fill="#1D1D1D"/>
<rect x="5" y="6" width="1" height="8" rx="0.5" fill="#F5740A"/>
<rect x="12" y="6" width="1" height="8" rx="0.5" fill="#F5740A"/>
<path d="M12.5 6.5L9 11L5.5 6.5" stroke="#F5740A"/>
</svg>
